# xmcd
#
# Track frame offsets:
#	150
#	12925
#	30182
#	43902
#	60872
#	70447
#	82775
#	103177
#	116190
#	131975
#	150150
#	174090
#	182657
#	220882
#	244952
#	261420
#	276405
#	292912
#
# Disc length: 4185 seconds
#
# Revision: 1
# Processed by: cddbd v1.5.2PL0 Copyright (c) Steve Scherf et al.
# Submitted via: EZCDAudioConverter 4.0.5.1
#
DISCID=fb105712
DTITLE=Pavel Bobek - Pojd dal a zpivej
DYEAR=2003
DGENRE=Country
TTITLE0=Oh,Ruby,nechtej mi lasku brat
TTITLE1=Nedelni rano
TTITLE2=Pojd stoupat jako dym
TTITLE3=Vincent
TTITLE4=Ma divka "N"
TTITLE5=Ved me dal,cesto ma
TTITLE6=Chvile,kdy jsem byl s ni
TTITLE7=Venezuela
TTITLE8=Pojd dal a zpivej
TTITLE9=Lasko,mne ubyva sil
TTITLE10=Rokenrolu dal jsem vsechny nejlepsi sve dny
TTITLE11=Nadherna krasko
TTITLE12=Pisen pro prazdny sal
TTITLE13=Dalnicni hlidka
TTITLE14=Muz na konci sveta
TTITLE15=Z nebe pada ranni dest
TTITLE16=S tim blaznem si nic nezacinej
TTITLE17=Vez tonu a slov
EXTD=
EXTT0=
EXTT1=
EXTT2=
EXTT3=
EXTT4=
EXTT5=
EXTT6=
EXTT7=
EXTT8=
EXTT9=
EXTT10=
EXTT11=
EXTT12=
EXTT13=
EXTT14=
EXTT15=
EXTT16=
EXTT17=
PLAYORDER=
